:SAMPLES-PER-SECOND 30
:FULLY-SPECIFIED
:DEGREES
81
root  43.603 30.5736 7.64388 -170.019 -3.70201 167.095
RightUpLeg  -45.0382 -7.33489 -39.9592
RightLeg  58.7059 -3.96963 -7.50258
RightFoot  -11.1304 -0.169552 46.38
RightToes  2.32829e-010 0 -3.6325e-017
Spine  26.3021 -7.08737 20.2496
Spine1  10.6743 6.20466 -31.5796
HEad  -12.326 28.8998 -4.54899
LeftShoulder1  2.68669 -7.12001 -18.7439
LeftArm  14.2361 -1.96487 -51.6137
LeftForeArm  20.1779 -63.7933 -21.5188
LeftHand  -3.19203 -5.72534 32.7884
RightShoulder  1.18389 -10.6716 -28.4527
RightArm  -99.7611 64.2596 -25.9451
RightForeArm  10.2333 45.3677 10.6264
RightHand  -2.98904 7.02693 -27.7366
LeftUpLeg  -42.8328 -3.27722 25.0315
LeftLeg  30.8405 2.02082 1.65276
LeftFoot  8.81744 4.78691 -26.7624
LeftToes  -5.54824e-011 -8.71001e-011 8.3852e-012
82
root  44.6024 30.9531 7.72012 -170.221 -7.45864 165.212
RightUpLeg  -42.7358 -6.24205 -40.6954
RightLeg  60.2375 -5.81889 -11.3561
RightFoot  -11.1067 -0.178428 46.8114
RightToes  2.32829e-010 0 -3.6325e-017
Spine  27.2245 -6.85797 17.9717
Spine1  10.3998 4.30955 -26.4261
HEad  -12.9911 27.2781 -3.47883
LeftShoulder1  2.87691 -7.70526 -19.1653
LeftArm  12.8467 1.27941 -50.219
LeftForeArm  19.9891 -65.1329 -23.1042
LeftHand  -3.10448 -5.55411 32.403
RightShoulder  1.49002 -12.0048 -29.2991
RightArm  -106.417 68.4793 -28.6519
RightForeArm  13.7687 51.4642 13.0074
RightHand  -2.7898 7.02049 -25.9816
LeftUpLeg  -39.78 -1.8923 22.4242
LeftLeg  28.2938 0.977872 0.919617
LeftFoot  12.8319 6.12888 -28.4732
LeftToes  -5.54824e-011 -8.71001e-011 8.3852e-012
83
root  45.3641 31.475 7.79912 -171.822 -11.9063 164.835
RightUpLeg  -38.12 -6.06862 -39.7156
RightLeg  60.2575 -7.57585 -14.5049
RightFoot  -10.507 -0.429942 46.3784
RightToes  2.32829e-010 0 -3.6325e-017
Spine  27.0647 -7.09765 17.1137
Spine1  11.478 3.00138 -22.8965
HEad  -12.5593 24.1404 -3.71783
LeftShoulder1  2.85256 -7.65445 -19.0497
LeftArm  12.7337 3.16603 -48.381
LeftForeArm  22.4332 -66.1039 -24.0204
LeftHand  -2.88278 -5.28519 30.9358
RightShoulder  1.0813 -10.9487 -25.8679
RightArm  -89.0917 69.0355 -14.6219
RightForeArm  12.879 52.4974 13.6624
RightHand  -2.62026 6.93843 -24.611
LeftUpLeg  -35.1495 0.53012 20.8728
LeftLeg  25.33 -1.13264 -0.245305
LeftFoot  16.7428 7.39215 -29.4004
LeftToes  -5.54824e-011 -8.71001e-011 8.3852e-012
84
root  45.8939 32.1763 7.72633 -172.413 -15.8066 164.481
RightUpLeg  -33.2939 -8.39505 -38.7232
RightLeg  57.7121 -8.17364 -14.1231
RightFoot  -10.5749 -0.397482 45.9783
RightToes  2.32829e-010 0 -3.6325e-017
Spine  25.5174 -7.26407 17.1148
Spine1  12.4351 2.71265 -22.713
HEad  -12.3947 19.8935 -3.99463
LeftShoulder1  2.60867 -6.9185 -18.4739
LeftArm  14.0747 4.90492 -46.086
LeftForeArm  28.2138 -68.1086 -26.2006
LeftHand  -2.70397 -5.1647 29.4364
RightShoulder  0.557799 -8.99282 -21.0393
RightArm  -58.3305 61.7596 8.6825
RightForeArm  11.0122 54.2104 14.845
RightHand  -2.2633 6.20907 -22.6575
LeftUpLeg  -30.9407 2.77141 19.6968
LeftLeg  21.8796 -2.82307 -0.935302
LeftFoot  20.5207 8.64499 -30.1213
LeftToes  -5.54824e-011 -8.71001e-011 8.3852e-012
85
root  46.1238 33.1481 7.50795 -171.969 -18.5718 163.526
RightUpLeg  -28.4405 -11.3016 -38.8869
RightLeg  52.6306 -8.49249 -12.094
RightFoot  -9.54364 -0.843656 46.4927
RightToes  2.32829e-010 0 -3.6325e-017
Spine  24.0846 -6.74822 15.2702
Spine1  12.3475 2.31507 -21.9734
HEad  -12.965 15.9121 -4.23053
LeftShoulder1  2.31048 -5.67843 -18.6327
LeftArm  15.1444 9.05095 -43.8451
LeftForeArm  36.4605 -72.1747 -33.3393
LeftHand  -2.63183 -5.03873 29.0167
RightShoulder  0.175798 -7.29772 -14.7592
RightArm  -36.3751 49.4469 25.127
RightForeArm  12.6563 59.2406 18.1187
RightHand  -1.90483 5.55424 -20.3141
LeftUpLeg  -26.733 4.18257 18.0041
LeftLeg  17.7505 -3.1089 -0.759128
LeftFoot  25.0341 9.85564 -29.9231
LeftToes  -5.54824e-011 -8.71001e-011 8.3852e-012
86
root  46.0295 34.3901 7.29158 -170.494 -20.257 163.918
RightUpLeg  -24.5744 -12.7094 -37.9215
RightLeg  45.4904 -10.5397 -11.4922
RightFoot  -5.45002 -2.55501 46.4893
RightToes  2.32829e-010 0 -3.6325e-017
Spine  21.3115 -5.66815 12.7582
Spine1  12.738 1.50547 -18.2958
HEad  -14.1369 13.273 -6.16819
LeftShoulder1  2.00568 -4.19253 -19.5854
LeftArm  15.6517 15.2731 -43.0474
LeftForeArm  48.4177 -76.2096 -45.734
LeftHand  -2.6428 -4.99296 29.2525
RightShoulder  -0.0611464 -5.97472 -6.71676
RightArm  -24.8531 38.5191 33.186
RightForeArm  15.4795 63.6828 21.9448
RightHand  -1.70285 5.34233 -18.5643
LeftUpLeg  -24.1233 5.25917 17.3081
LeftLeg  14.4717 -4.13739 -0.627908
LeftFoot  29.7619 10.2078 -27.3388
LeftToes  -5.54824e-011 -8.71001e-011 8.3852e-012
87
root  45.7123 35.7258 7.15923 -167.758 -21.4743 166.227
RightUpLeg  -22.4562 -13.1149 -34.8075
RightLeg  36.503 -13.3907 -10.7262
RightFoot  0.500015 -4.68421 43.3021
RightToes  2.32829e-010 0 -3.6325e-017
Spine  16.0562 -4.62207 11.743
Spine1  14.3538 0.698666 -13.5961
HEad  -15.9176 11.9691 -9.83727
LeftShoulder1  1.64412 -2.71975 -19.9276
LeftArm  15.8883 21.0121 -45.1579
LeftForeArm  60.1736 -78.0862 -55.5962
LeftHand  -2.62297 -5.29757 28.2607
RightShoulder  -0.158355 -5.12908 1.12538
RightArm  -17.685 29.6342 36.8284
RightForeArm  17.4266 67.3728 26.7197
RightHand  -1.48018 4.71569 -17.1636
LeftUpLeg  -24.7712 5.04909 18.3113
LeftLeg  13.524 -5.95537 -0.733668
LeftFoot  32.9491 9.34459 -23.2241
LeftToes  -5.54824e-011 -8.71001e-011 8.3852e-012
88
root  45.3606 36.841 7.05608 -165.607 -21.588 167.431
RightUpLeg  -20.6084 -12.311 -33.2727
RightLeg  27.594 -12.4197 -7.21575
RightFoot  4.97157 -5.60626 37.9477
RightToes  2.32829e-010 0 -3.6325e-017
Spine  12.8886 -3.68164 9.43857
Spine1  15.0397 -0.0145248 -9.81439
HEad  -18.2457 11.6817 -12.9032
LeftShoulder1  1.25853 -1.43126 -18.944
LeftArm  15.5469 25.6196 -49.0655
LeftForeArm  68.7993 -78.9324 -61.7467
LeftHand  -2.42526 -5.73478 25.2273
RightShoulder  -0.210157 -4.9368 6.66549
RightArm  -11.6675 19.8927 40.5839
RightForeArm  22.79 71.9912 35.7915
RightHand  -1.19964 3.75441 -15.4025
LeftUpLeg  -24.8605 3.38034 18.4967
LeftLeg  13.7575 -5.23561 -0.408811
LeftFoot  33.6589 8.49831 -20.8595
LeftToes  -5.54824e-011 -8.71001e-011 8.3852e-012
89
root  45.1721 37.4657 6.97869 -163.732 -19.3212 169.733
RightUpLeg  -22.0453 -9.07784 -30.7877
RightLeg  23.4054 -8.5932 -4.22093
RightFoot  6.40412 -5.44963 34.1794
RightToes  2.32829e-010 0 -3.6325e-017
Spine  10.2492 -2.01307 7.26499
Spine1  15.3858 0.817212 -7.75476
HEad  -20.8748 12.2606 -13.5518
LeftShoulder1  0.96896 -0.445103 -17.9343
LeftArm  14.6923 29.4644 -51.687
LeftForeArm  81.4231 -79.8338 -76.0886
LeftHand  -2.12942 -5.79576 22.1622
RightShoulder  -0.227688 -4.76557 10.5802
RightArm  -6.62302 10.1784 44.9702
RightForeArm  33.9241 76.0433 50.4984
RightHand  -0.92253 3.11901 -12.7678
LeftUpLeg  -24.9782 6.22425 19.4954
LeftLeg  14.964 -3.82765 -0.430877
LeftFoot  32.1752 8.80751 -22.3819
LeftToes  -5.54824e-011 -8.71001e-011 8.3852e-012
90
root  45.1759 37.6041 7.02531 -162.804 -16.5208 173.044
RightUpLeg  -24.4143 -4.16941 -27.6019
RightLeg  25.0278 -7.14273 -3.85675
RightFoot  5.5169 -5.12742 33.9193
RightToes  2.32829e-010 0 -3.6325e-017
Spine  8.29641 -0.180741 5.41459
Spine1  16.1714 2.25436 -6.4205
HEad  -23.2736 12.8399 -12.5201
LeftShoulder1  0.838019 0.12214 -18.1776
LeftArm  14.0954 31.2827 -51.7126
LeftForeArm  96.7485 -79.8363 -96.9211
LeftHand  -1.98311 -5.29542 21.6293
RightShoulder  -0.101125 -3.9681 14.0115
RightArm  -2.28702 2.70536 48.5579
RightForeArm  47.2883 78.138 67.9919
RightHand  -0.646447 2.39687 -9.82484
LeftUpLeg  -25.2309 11.4729 21.6288
LeftLeg  16.9827 -3.84643 -0.937086
LeftFoot  29.6241 9.22882 -24.9017
LeftToes  -5.54824e-011 -8.71001e-011 8.3852e-012
